<svg width="26" height="34" viewBox="0 0 26 34" fill="none" xmlns="http://www.w3.org/2000/svg">
<path fill-rule="evenodd" clip-rule="evenodd" d="M19.3863 24.3287C19.5798 23.7097 19.6841 23.0513 19.6841 22.3685C19.6841 19.2621 17.5255 16.66 14.6264 15.9802L14.3977 16.3764C13.6279 17.7097 11.7034 17.7097 10.9336 16.3764L8.06962 11.4158C7.29982 10.0825 8.26207 8.41584 9.80167 8.41584H15.5296C17.0692 8.41584 18.0314 10.0825 17.2616 11.4158L16.7532 12.2965C17.8442 13.7064 19.5528 14.6141 21.4735 14.6141C22.8015 14.6141 24.0282 14.1802 25.0194 13.4463C25.0414 13.1425 25.0526 12.8357 25.0526 12.5263C25.0526 5.60822 19.4444 0 12.5263 0C5.60822 0 0 5.60822 0 12.5263C0 14.6256 0.516391 16.6042 1.42907 18.3421H1.41991L1.45578 18.3927C1.96345 19.3487 2.59135 20.2312 3.31931 21.0199L12.5263 34L19.3863 24.3287Z" fill="url(#paint0_radial_312_1570)"/>
<defs>
<radialGradient id="paint0_radial_312_1570" cx="0" cy="0" r="1" gradientUnits="userSpaceOnUse" gradientTransform="translate(9.24561 -3.42982) rotate(84.9909) scale(37.5733 27.6856)">
<stop offset="0.126859" stop-color="#3300FF"/>
<stop offset="0.652948" stop-color="#9755EC"/>
<stop offset="1" stop-color="#00FFB3"/>
</radialGradient>
</defs>
</svg>
